<?xml version="1.0" encoding="UTF-8"?>
<!-- Created with Inkscape (http://www.inkscape.org/) -->
<svg width="180" height="180" version="1.1" viewBox="0 0 180 180" xmlns="http://www.w3.org/2000/svg">
 <g transform="matrix(.30834 0 0 .25294 -436.59 -.089462)">
  <path d="m1841.5 702.65h-181.66l5.86-68.364s-84.845-50.396-74.81-118.52c13.204-89.671 24.646-177.48 24.646-177.48s9.662-185.32 12.466-238.56c3.907-74.222 70.473-74.034 70.473-9.605 0 89.849 0.79 112.81-0.584 130.71-1.956 25.391 3.141 87.896 3.141 87.896s14.436-233.85 14.436-265.64c0-31.251 66.408-58.598 70.316 5.859 5.948 98.147-6.621 263.69-6.621 263.69s13.797-198.72 22.246-222.67c11.721-33.206 57.605-29.418 56.646 13.672-1.951 87.748-10.527 226.58-10.527 226.58s8.554-85.237 14.182-138.68c3.904-37.111 52.734-62.504 54.689 13.675 1.08 42.161 2.586 96.144-3.906 148.44-8.172 65.807 8.573 118.91 0.685 154.31-16.187 72.598-69.734 132.19-69.734 132.19z" fill="#f7cfbe"/>
  <path d="m1841.5 702.65h-181.66l5.86-68.364s-84.845-50.396-74.81-118.52c13.204-89.671 24.646-177.48 24.646-177.48s9.662-185.32 12.466-238.56c3.907-74.222 70.473-74.034 70.473-9.605 0 89.849 0.79 112.81-0.584 130.71-1.956 25.391 3.141 87.896 3.141 87.896s14.436-233.85 14.436-265.64c0-31.251 66.408-58.598 70.316 5.859 5.948 98.147-6.621 263.69-6.621 263.69s13.797-198.72 22.246-222.67c11.721-33.206 57.605-29.418 56.646 13.672-1.951 87.748-10.527 226.58-10.527 226.58s8.554-85.237 14.182-138.68c3.904-37.111 52.734-62.504 54.689 13.675 1.08 42.161 2.586 96.144-3.906 148.44-8.172 65.807 8.573 118.91 0.685 154.31-16.187 72.598-69.734 132.19-69.734 132.19z" fill-opacity="0" stroke="#e16049" stroke-linecap="round" stroke-linejoin="round" stroke-width="18.693"/>
  <path d="m1598.7 566.55s-37.108-80.079-48.828-101.57c-11.721-21.488-41.369-95.561-48.835-113.29-15.626-37.111 37.114-54.69 60.555-31.251 23.437 23.438 58.595 89.85 58.595 89.85s40.307 15.389 52.736 19.533c23.442 7.812 39.067 41.017 39.067 41.017" fill="#f7cfbe"/>
  <path d="m1598.7 566.55s-37.108-80.079-48.828-101.57c-11.721-21.488-41.369-95.561-48.835-113.29-15.626-37.111 37.114-54.69 60.555-31.251 23.437 23.438 58.595 89.85 58.595 89.85s40.307 15.389 52.736 19.533c23.442 7.812 39.067 41.017 39.067 41.017" fill-opacity="0" stroke="#e16049" stroke-linecap="round" stroke-linejoin="round" stroke-width="18.693"/>
 </g>
</svg>
