<?xml version="1.0" encoding="UTF-8"?>
<!-- Created with Inkscape (http://www.inkscape.org/) -->
<svg width="180" height="180" version="1.1" viewBox="0 0 180 180" xmlns="http://www.w3.org/2000/svg">
 <g transform="matrix(0 .40771 -.40771 0 290.29 -382.86)">
  <path d="m1246.9 702.65h-181.65l5.861-68.364s-101.02-80.62-91.716-148.85c4.236-31.069 26.06-46.027 29.564-51.281 5.647-8.473 1.513-51.455 8.565-95.279 8.728-54.233 41.305-64.866 72.023-56.49 31.068 8.475 26.489 34.242 26.489 34.242s19.533-29.3 50.783-23.438c26.947 5.05 29.298 35.158 29.298 35.158s20.916-23.887 44.929-15.627c36.762 12.649 27.344 52.737 27.344 52.737s48.789-40.439 66.366 10.344c17.583 50.785-7.822 83.323-12.338 122.61-12.212 106.19-73.56 141.73-73.56 141.73z" fill="#f7cfbe"/>
  <path d="m1246.9 702.65h-181.65l5.861-68.364s-101.02-80.62-91.716-148.85c4.236-31.069 26.06-46.027 29.564-51.281 5.647-8.473 1.513-51.455 8.565-95.279 8.728-54.233 41.305-64.866 72.023-56.49 31.068 8.475 26.489 34.242 26.489 34.242s19.533-29.3 50.783-23.438c26.947 5.05 29.298 35.158 29.298 35.158s20.916-23.887 44.929-15.627c36.762 12.649 27.344 52.737 27.344 52.737s48.789-40.439 66.366 10.344c17.583 50.785-7.822 83.323-12.338 122.61-12.212 106.19-73.56 141.73-73.56 141.73z" fill-opacity="0" stroke="#e16049" stroke-linecap="round" stroke-linejoin="round" stroke-width="18.693"/>
  <path d="m1114.3 323.78s-45.315 123.26-2.149 131.21c48.619 8.951 65.574-15.746 67.048-34.927 1.947-25.284 18.827-94.845 18.827-94.845s-45.511 144.12 2.167 150.62c49.608 6.766 47.334-35.272 54.181-54.179 6.849-18.908 16.848-68.906 16.848-68.906s-21.347 81.933-26.126 100.57c-10.227 39.857 64.512 83.341 77.193-22.991l8.67-3.252" fill-opacity="0" stroke="#e16049" stroke-linecap="round" stroke-linejoin="round" stroke-width="18.693"/>
  <path d="m1079.6 529.44s15.14-30.508 38.235-33.133c113.08-12.865 85.034-106.83 6.111-94.824-117.25 17.843-137.46 69.829-137.46 69.829" fill="#f7cfbe"/>
  <path d="m1079.6 529.44s15.14-30.508 38.235-33.133c113.08-12.865 85.034-106.83 6.111-94.824-117.25 17.843-137.46 69.829-137.46 69.829" fill-opacity="0" stroke="#e16049" stroke-linecap="round" stroke-linejoin="round" stroke-width="18.693"/>
 </g>
</svg>
