<?xml version="1.0" encoding="UTF-8"?>
<!-- Created with Inkscape (http://www.inkscape.org/) -->
<svg width="180" height="180" version="1.1" viewBox="0 0 180 180" xmlns="http://www.w3.org/2000/svg">
 <g transform="matrix(.3221 0 0 .26683 -121.91 -10.253)">
  <path d="m734.2 702.65h-181.65l5.858-68.364s-72.942-90.241-62.908-158.37c13.207-89.668 12.746-137.64 12.746-137.64s-10.698-180.96-11.694-234.26c-1.213-64.974 71.382-74.612 78.656-10.595 9.64 84.847 23.755 245.8 23.755 245.8 12.621-31.909 56.473-205.47 66.309-245.8 16.993-69.674 87.576-48.995 81.072 1.895-9.88 77.286-62.929 222.84-62.929 222.84s20.917-23.886 44.928-15.626c36.764 12.647 27.345 52.736 27.345 52.736s38.712-22.05 56.291 28.734c17.58 50.783 7.084 75.99-2.263 114.42-17.58 72.269-73.56 141.72-73.56 141.72z" fill="#f7cfbe"/>
  <path d="m734.2 702.65h-181.65l5.858-68.364s-72.942-90.241-62.908-158.37c13.207-89.668 12.746-137.64 12.746-137.64s-10.698-180.96-11.694-234.26c-1.213-64.974 71.382-74.612 78.656-10.595 9.64 84.847 23.755 245.8 23.755 245.8 12.621-31.909 56.473-205.47 66.309-245.8 16.993-69.674 87.576-48.995 81.072 1.895-9.88 77.286-62.929 222.84-62.929 222.84s20.917-23.886 44.928-15.626c36.764 12.647 27.345 52.736 27.345 52.736s38.712-22.05 56.291 28.734c17.58 50.783 7.084 75.99-2.263 114.42-17.58 72.269-73.56 141.72-73.56 141.72z" fill-opacity="0" stroke="#e16049" stroke-linecap="round" stroke-linejoin="round" stroke-width="18.693"/>
  <path d="m683.41 318.16s-64.457 126.36-17.577 143.93c46.878 17.578 46.878-17.577 56.643-35.159 9.768-17.578 33.207-71.664 33.207-71.664s-41.792 86.033-43.401 105.2c-2.383 28.4 32.082 38.591 45.753 26.872 13.674-11.718 29.299-50.782 29.299-50.782l13.4-9.601" fill-opacity="0" stroke="#e16049" stroke-linecap="round" stroke-linejoin="round" stroke-width="18.693"/>
  <path d="m566.86 529.45s15.307-29.315 38.233-33.137c76.467-12.745 84.021-101.22 5.096-89.207-117.25 17.842-112.15 73.915-112.15 73.915" fill="#f7cfbe"/>
  <path d="m566.86 529.45s15.307-29.315 38.233-33.137c76.467-12.745 84.021-101.22 5.096-89.207-117.25 17.842-112.15 73.915-112.15 73.915" fill-opacity="0" stroke="#e16049" stroke-linecap="round" stroke-linejoin="round" stroke-width="18.693"/>
 </g>
</svg>
